<?xml version="1.0" encoding="UTF-8" standalone="no"?>
<svg
   xmlns:dc="http://purl.org/dc/elements/1.1/"
   xmlns:cc="http://creativecommons.org/ns#"
   xmlns:rdf="http://www.w3.org/1999/02/22-rdf-syntax-ns#"
   xmlns:svg="http://www.w3.org/2000/svg"
   xmlns="http://www.w3.org/2000/svg"
   xmlns:sodipodi="http://sodipodi.sourceforge.net/DTD/sodipodi-0.dtd"
   xmlns:inkscape="http://www.inkscape.org/namespaces/inkscape"
   width="100%"
   height="100%"
   viewBox="0 0 88 87.999"
   id="svg2"
   sodipodi:version="0.32"
   inkscape:version="0.47pre4 r22446"
   sodipodi:docname="qgn_menu_Ookjor.svg"
   inkscape:output_extension="org.inkscape.output.svg.inkscape"
   version="1.1">
  <metadata
     id="metadata83">
    <rdf:RDF>
      <cc:Work
         rdf:about="">
        <dc:format>image/svg+xml</dc:format>
        <dc:type
           rdf:resource="http://purl.org/dc/dcmitype/StillImage" />
      </cc:Work>
    </rdf:RDF>
  </metadata>
  <defs
     id="defs81">
    <inkscape:perspective
       sodipodi:type="inkscape:persp3d"
       inkscape:vp_x="0 : 0.5 : 1"
       inkscape:vp_y="0 : 1000 : 0"
       inkscape:vp_z="1 : 0.5 : 1"
       inkscape:persp3d-origin="0.5 : 0.33333333 : 1"
       id="perspective85" />
    <inkscape:perspective
       id="perspective2884"
       inkscape:persp3d-origin="0.5 : 0.33333333 : 1"
       inkscape:vp_z="1 : 0.5 : 1"
       inkscape:vp_y="0 : 1000 : 0"
       inkscape:vp_x="0 : 0.5 : 1"
       sodipodi:type="inkscape:persp3d" />
    <inkscape:perspective
       id="perspective2884-1"
       inkscape:persp3d-origin="0.5 : 0.33333333 : 1"
       inkscape:vp_z="1 : 0.5 : 1"
       inkscape:vp_y="0 : 1000 : 0"
       inkscape:vp_x="0 : 0.5 : 1"
       sodipodi:type="inkscape:persp3d" />
  </defs>
  <sodipodi:namedview
     inkscape:window-height="673"
     inkscape:window-width="667"
     inkscape:pageshadow="2"
     inkscape:pageopacity="0.0"
     guidetolerance="10.0"
     gridtolerance="10.0"
     objecttolerance="10.0"
     borderopacity="1.0"
     bordercolor="#666666"
     pagecolor="#ffffff"
     id="base"
     showgrid="false"
     inkscape:zoom="5.2500596"
     inkscape:cx="47.190065"
     inkscape:cy="38.819532"
     inkscape:window-x="314"
     inkscape:window-y="137"
     inkscape:current-layer="svg2"
     inkscape:window-maximized="0" />
  <rect
     style="fill:#00ffff;fill-rule:evenodd;stroke:#000000;stroke-width:1.54331314999999991px;stroke-linecap:butt;stroke-linejoin:miter;stroke-opacity:1"
     id="rect2819"
     width="67.45591"
     height="59.836952"
     x="16.652422"
     y="10.176305" />
  <rect
     style="fill:#00ffff;fill-rule:evenodd;stroke:#000000;stroke-width:1px;stroke-linecap:butt;stroke-linejoin:miter;stroke-opacity:1"
     id="rect2821"
     width="23.237831"
     height="35.047222"
     x="3.8094802"
     y="48.570877" />
  <path
     sodipodi:type="star"
     style="fill:#008000"
     id="path2857"
     sodipodi:sides="5"
     sodipodi:cx="14.095078"
     sodipodi:cy="60.57074"
     sodipodi:r1="11.009662"
     sodipodi:r2="5.5048313"
     sodipodi:arg1="1.0452125"
     sodipodi:arg2="1.6735311"
     inkscape:flatsided="false"
     inkscape:rounded="0"
     inkscape:randomized="0"
     d="m 19.618825,70.09444 -6.08829,-4.047894 -6.7861024,2.720574 1.9683908,-7.041176 -4.6844406,-5.613263 7.3048222,-0.303792 3.890959,-6.189762 2.546238,6.853422 7.089186,1.787781 -5.731161,4.53944 0.490398,7.29467 z"
     transform="translate(0.95237014,1.3333179)" />
  <path
     sodipodi:type="star"
     style="fill:#008000"
     id="path2859"
     sodipodi:sides="5"
     sodipodi:cx="33.904377"
     sodipodi:cy="29.142525"
     sodipodi:r1="33.904911"
     sodipodi:r2="16.952457"
     sodipodi:arg1="0.93291314"
     sodipodi:arg2="1.5612317"
     inkscape:flatsided="false"
     inkscape:rounded="0"
     inkscape:randomized="0"
     d="M 54.094623,56.38031 34.066518,46.094207 14.238833,56.761529 17.832474,34.535088 1.5601561,18.974223 23.809253,15.52363 33.580093,-4.7608355 43.73715,15.333022 66.048179,18.357398 50.076489,34.226677 54.094623,56.38031 z"
     transform="matrix(0.93797369,0,0,0.83900734,19.144174,17.1381)" />
  <path
     style="fill:#0000ff"
     id="path2841"
     d="m 20.107767,41.840162 c 0.832292,-0.07289 1.669584,-0.08723 2.504688,-0.102706 0.99481,-0.04537 1.985693,-0.04739 2.961974,0.161042 0.963325,0.217175 1.743246,0.826495 2.544638,1.365607 0.747317,0.510694 1.519745,0.98268 2.269955,1.489499 0.699372,0.496282 1.098417,1.243139 1.529848,1.959621 0.590722,0.995685 0.893944,2.108405 1.201927,3.21345 0.269153,1.034525 0.520381,2.073985 0.691338,3.129567 0.105116,0.715552 0.220465,1.42334 0.228499,2.147768 0.02372,0.434902 -0.04492,0.861058 -0.09234,1.290517 -0.02342,0.260532 -0.05719,0.519752 -0.103826,0.777058 0,0 -2.502235,1.206912 -2.502235,1.206912 l 0,0 c 0.06516,-0.243119 0.08463,-0.491837 0.121957,-0.740594 0.01672,-0.43156 0.152412,-0.854275 0.129059,-1.292171 0.03298,-0.722773 -0.04297,-1.428686 -0.137774,-2.14531 -0.137368,-1.054658 -0.364137,-2.094091 -0.643039,-3.120269 -0.280639,-1.08676 -0.580606,-2.174672 -1.194378,-3.129992 -0.426649,-0.679156 -0.843455,-1.367946 -1.512677,-1.840165 -0.728335,-0.517951 -1.461327,-1.029424 -2.206449,-1.523074 -0.795195,-0.516167 -1.574832,-1.075341 -2.529301,-1.252089 -0.947808,-0.176207 -1.908642,-0.202207 -2.870776,-0.151837 -0.891003,0.03787 -1.780808,0.08766 -2.664922,0.209202 0,0 2.273834,-1.652036 2.273834,-1.652036 z" />
  <rect
     style="fill:#280b0b"
     id="rect2870"
     width="23.428307"
     height="4.5713763"
     x="3.6190062"
     y="78.665779" />
  <rect
     style="fill:#2b0000"
     id="rect2874"
     width="26.666365"
     height="5.3332729"
     x="36.571014"
     y="70.475388" />
  <path
     style="fill:#0000ff"
     id="path2843"
     d="m 24.167791,34.428786 c 0.465284,-0.0682 0.938391,-0.07178 1.407826,-0.08285 0.763621,-0.01647 1.527387,-0.0061 2.291083,-0.01149 0.683013,0.06438 1.388542,0.156804 2.022932,0.428387 0.700123,0.358937 1.326667,0.841788 1.978544,1.278628 0.805486,0.530698 1.525065,1.166082 2.259365,1.787575 0.974066,0.772294 1.855403,1.648576 2.745643,2.513295 0.772243,0.809228 1.519173,1.642426 2.256422,2.483591 0.514868,0.652289 1.09581,1.247115 1.629814,1.882974 0.383402,0.425485 0.69914,0.878849 0.9034,1.414088 0.259104,0.711995 0.337677,1.471014 0.375186,2.222651 0.03142,0.804023 0.134441,1.602776 0.194711,2.404769 0.01714,0.572036 0.101399,1.136384 0.180817,1.701926 0.07841,0.450417 -0.0074,0.903331 -0.04766,1.352958 -0.0016,0.384198 -0.07324,0.756285 -0.147973,1.130835 -0.0091,0.05524 -0.01828,0.110482 -0.02743,0.165722 0,0 -2.50103,1.229344 -2.50103,1.229344 l 0,0 c 0.0073,-0.05836 0.01463,-0.116718 0.02194,-0.175078 0.06376,-0.373855 0.190567,-0.73316 0.180088,-1.117252 0.03734,-0.433513 0.117077,-0.870681 0.08146,-1.304872 -0.06205,-0.578671 -0.156866,-1.153863 -0.146226,-1.737829 -0.04476,-0.807398 -0.131637,-1.611313 -0.167286,-2.418973 -0.05833,-0.717134 -0.113186,-1.446679 -0.396745,-2.117408 -0.197393,-0.501951 -0.490295,-0.941832 -0.834148,-1.35679 -0.502654,-0.65284 -1.078645,-1.24567 -1.573575,-1.905292 -0.721714,-0.841357 -1.423969,-1.700699 -2.19669,-2.496548 -0.871307,-0.87959 -1.7853,-1.716861 -2.767298,-2.472452 -0.742002,-0.60065 -1.475606,-1.21318 -2.268944,-1.746323 -0.653284,-0.417576 -1.287886,-0.878252 -1.995004,-1.201465 -0.621012,-0.219342 -1.286029,-0.322447 -1.942113,-0.36089 -0.768176,-0.0037 -1.536626,0.0053 -2.304309,0.0339 -0.484574,0.02651 -0.986454,0.03683 -1.445808,0.209676 0,0 2.233007,-1.734814 2.233007,-1.734814 z" />
  <path
     style="fill:#0000ff"
     id="path2843-2"
     d="m 27.945012,27.967374 c 0.577627,-0.07883 1.164967,-0.08297 1.747747,-0.09576 0.947999,-0.01904 1.896177,-0.007 2.844268,-0.01328 0.847928,0.07442 1.723808,0.181245 2.511372,0.495158 0.869169,0.414883 1.646992,0.972994 2.456266,1.477922 0.999972,0.613416 1.893294,1.347834 2.804892,2.066196 1.209255,0.892668 2.303392,1.905532 3.408582,2.905031 0.958702,0.935359 1.885979,1.898424 2.801238,2.870697 0.639183,0.753959 1.360395,1.441498 2.023335,2.176464 0.475974,0.491803 0.867948,1.015831 1.121527,1.634495 0.321665,0.822971 0.419209,1.700295 0.465775,2.569086 0.03901,0.929342 0.166902,1.852593 0.241724,2.779589 0.02128,0.661197 0.125882,1.313507 0.224476,1.967198 0.09734,0.520621 -0.0092,1.044129 -0.05917,1.563837 -0.002,0.444081 -0.09092,0.874164 -0.183701,1.307093 -0.0113,0.06385 -0.02269,0.127703 -0.03405,0.191553 0,0 -3.104907,1.420956 -3.104907,1.420956 l 0,0 c 0.0091,-0.06746 0.01816,-0.13491 0.02724,-0.202367 0.07916,-0.432126 0.23658,-0.847434 0.223571,-1.291393 0.04636,-0.501082 0.145345,-1.00639 0.101128,-1.508256 -0.07704,-0.668871 -0.194745,-1.333716 -0.181536,-2.008702 -0.05557,-0.933243 -0.163421,-1.862461 -0.207678,-2.796007 -0.07241,-0.82891 -0.140515,-1.672166 -0.492539,-2.447439 -0.245054,-0.580188 -0.608678,-1.088631 -1.035554,-1.568267 -0.624021,-0.754595 -1.339086,-1.439826 -1.953517,-2.20226 -0.895973,-0.972495 -1.767788,-1.965779 -2.727084,-2.885673 -1.081685,-1.016688 -2.216363,-1.984461 -3.435465,-2.857822 -0.92116,-0.694271 -1.831894,-1.402273 -2.816784,-2.018515 -0.81102,-0.482661 -1.598848,-1.015141 -2.4767,-1.388731 -0.770956,-0.25353 -1.596543,-0.372706 -2.411039,-0.417141 -0.953653,-0.0043 -1.907646,0.0061 -2.860687,0.03918 -0.601576,0.03064 -1.224635,0.04257 -1.794901,0.242357 0,0 2.77217,-2.005211 2.77217,-2.005211 z" />
</svg>
